<svg xmlns="http://www.w3.org/2000/svg" xmlns:xlink="http://www.w3.org/1999/xlink" xmlns:lucid="lucid" width="380" height="720"><g transform="translate(-540 -20)" lucid:page-tab-id="0_0"><path d="M680 360c0 22.1-17.9 40-40 40s-40-17.9-40-40 17.9-40 40-40 40 17.9 40 40z" stroke="#000" stroke-width="2" fill="#d1bcd2"/><use xlink:href="#a" transform="matrix(1,0,0,1,605,325) translate(10 38.6)"/><path d="M760 80c0 22.1-17.9 40-40 40s-40-17.9-40-40 17.9-40 40-40 40 17.9 40 40z" stroke="#000" stroke-width="2" fill="#c7e8ac"/><use xlink:href="#b" transform="matrix(1,0,0,1,685,45) translate(10 38.6)"/><path d="M688 460c17.67 0 32 17.9 32 40s-14.33 40-32 40h-96c-17.67 0-32-17.9-32-40s14.33-40 32-40z" stroke="#000" stroke-width="2" fill="#d1bcd2"/><use xlink:href="#c" transform="matrix(1,0,0,1,565,465) translate(36.55 38.6)"/><path d="M768 160c17.67 0 32 17.9 32 40s-14.33 40-32 40h-96c-17.67 0-32-17.9-32-40s14.33-40 32-40z" stroke="#000" stroke-width="2" fill="#c7e8ac"/><use xlink:href="#d" transform="matrix(1,0,0,1,645,165) translate(36.55 38.6)"/><path d="M860 360c0 22.1-17.9 40-40 40s-40-17.9-40-40 17.9-40 40-40 40 17.9 40 40z" stroke="#000" stroke-width="2" fill="#ffbbb1"/><use xlink:href="#e" transform="matrix(1,0,0,1,785,325) translate(10 38.6)"/><path d="M868 460c17.67 0 32 17.9 32 40s-14.33 40-32 40h-96c-17.67 0-32-17.9-32-40s14.33-40 32-40z" stroke="#000" stroke-width="2" fill="#ffbbb1"/><use xlink:href="#f" transform="matrix(1,0,0,1,745,465) translate(36.55 38.6)"/><path d="M640 459v-39.76M640 459v3" stroke="#000" stroke-width="2" fill="none"/><path d="M640 404.24l4.64 14.26h-9.28z" stroke="#000" stroke-width="2"/><path d="M820 459v-39.76M820 459v3" stroke="#000" stroke-width="2" fill="none"/><path d="M820 404.24l4.64 14.26h-9.28z" stroke="#000" stroke-width="2"/><path d="M640 319v-39h80v-20.76M640 319v3" stroke="#000" stroke-width="2" fill="none"/><path d="M720 244.24l4.64 14.26h-9.28z" stroke="#000" stroke-width="2"/><path d="M820 319v-39H720v-20.76M820 319v3" stroke="#000" stroke-width="2" fill="none"/><path d="M720 244.24l4.64 14.26h-9.28z" stroke="#000" stroke-width="2"/><path d="M664 684c-13.25 0-24-10.75-24-24 0-10.6 6.5-19.55 16.58-22.83C656 606 696 600 712 612c8-18 48-12 48 6 24-6 48 18 32 48 16 24 0 54-32 42-8 15.6-40 15.6-48 0-16 12-48 6-48-24z" stroke="#000" stroke-width="2" fill="#fff"/><path d="M639 660h-17.67V559.24M639 660h3" stroke="#000" stroke-width="2" fill="none"/><path d="M621.33 544.24l4.64 14.26h-9.27z" stroke="#000" stroke-width="2"/><path d="M795.73 660H820V559.24M795.73 660h-3" stroke="#000" stroke-width="2" fill="none"/><path d="M820 544.24l4.64 14.26h-9.28z" stroke="#000" stroke-width="2"/><path d="M720 159v-19.76M720 159v3" stroke="#000" stroke-width="2" fill="none"/><path d="M720 124.24l4.64 14.26h-9.28z" stroke="#000" stroke-width="2"/><defs><path d="M141-36C126-15 110 5 73 4 37 3 15-17 15-53c-1-64 63-63 125-63 3-35-9-54-41-54-24 1-41 7-42 31l-33-3c5-37 33-52 76-52 45 0 72 20 72 64v82c-1 20 7 32 28 27v20c-31 9-61-2-59-35zM48-53c0 20 12 33 32 33 41-3 63-29 60-74-43 2-92-5-92 41" id="g"/><path d="M115-194c55 1 70 41 70 98S169 2 115 4C84 4 66-9 55-30l1 105H24l-1-265h31l2 30c10-21 28-34 59-34zm-8 174c40 0 45-34 45-75s-6-73-45-74c-42 0-51 32-51 76 0 43 10 73 51 73" id="h"/><path d="M27 0v-27h64v-190l-56 39v-29l58-41h29v221h61V0H27" id="i"/><g id="a"><use transform="matrix(0.05,0,0,0.05,0,0)" xlink:href="#g"/><use transform="matrix(0.05,0,0,0.05,10,0)" xlink:href="#h"/><use transform="matrix(0.05,0,0,0.05,20,0)" xlink:href="#h"/><use transform="matrix(0.05,0,0,0.05,30,0)" xlink:href="#i"/><use transform="matrix(0.05,0,0,0.05,40,0)" xlink:href="#g"/></g><path d="M101-251c82-7 93 87 43 132L82-64C71-53 59-42 53-27h129V0H18c2-99 128-94 128-182 0-28-16-43-45-43s-46 15-49 41l-32-3c6-41 34-60 81-64" id="j"/><g id="b"><use transform="matrix(0.05,0,0,0.05,0,0)" xlink:href="#g"/><use transform="matrix(0.05,0,0,0.05,10,0)" xlink:href="#h"/><use transform="matrix(0.05,0,0,0.05,20,0)" xlink:href="#h"/><use transform="matrix(0.05,0,0,0.05,30,0)" xlink:href="#j"/><use transform="matrix(0.05,0,0,0.05,40,0)" xlink:href="#g"/></g><path d="M135-143c-3-34-86-38-87 0 15 53 115 12 119 90S17 21 10-45l28-5c4 36 97 45 98 0-10-56-113-15-118-90-4-57 82-63 122-42 12 7 21 19 24 35" id="k"/><path d="M100-194c63 0 86 42 84 106H49c0 40 14 67 53 68 26 1 43-12 49-29l28 8c-11 28-37 45-77 45C44 4 14-33 15-96c1-61 26-98 85-98zm52 81c6-60-76-77-97-28-3 7-6 17-6 28h103" id="l"/><path d="M114-163C36-179 61-72 57 0H25l-1-190h30c1 12-1 29 2 39 6-27 23-49 58-41v29" id="m"/><path d="M108 0H70L1-190h34L89-25l56-165h34" id="n"/><path d="M24-231v-30h32v30H24zM24 0v-190h32V0H24" id="o"/><path d="M96-169c-40 0-48 33-48 73s9 75 48 75c24 0 41-14 43-38l32 2c-6 37-31 61-74 61-59 0-76-41-82-99-10-93 101-131 147-64 4 7 5 14 7 22l-32 3c-4-21-16-35-41-35" id="p"/><g id="c"><use transform="matrix(0.05,0,0,0.05,0,0)" xlink:href="#k"/><use transform="matrix(0.05,0,0,0.05,9,0)" xlink:href="#l"/><use transform="matrix(0.05,0,0,0.05,19,0)" xlink:href="#m"/><use transform="matrix(0.05,0,0,0.05,24.95,0)" xlink:href="#n"/><use transform="matrix(0.05,0,0,0.05,33.95,0)" xlink:href="#o"/><use transform="matrix(0.05,0,0,0.05,37.900000000000006,0)" xlink:href="#p"/><use transform="matrix(0.05,0,0,0.05,46.900000000000006,0)" xlink:href="#l"/><use transform="matrix(0.05,0,0,0.05,56.900000000000006,0)" xlink:href="#i"/><use transform="matrix(0.05,0,0,0.05,66.9,0)" xlink:href="#g"/></g><g id="d"><use transform="matrix(0.05,0,0,0.05,0,0)" xlink:href="#k"/><use transform="matrix(0.05,0,0,0.05,9,0)" xlink:href="#l"/><use transform="matrix(0.05,0,0,0.05,19,0)" xlink:href="#m"/><use transform="matrix(0.05,0,0,0.05,24.95,0)" xlink:href="#n"/><use transform="matrix(0.05,0,0,0.05,33.95,0)" xlink:href="#o"/><use transform="matrix(0.05,0,0,0.05,37.900000000000006,0)" xlink:href="#p"/><use transform="matrix(0.05,0,0,0.05,46.900000000000006,0)" xlink:href="#l"/><use transform="matrix(0.05,0,0,0.05,56.900000000000006,0)" xlink:href="#j"/><use transform="matrix(0.05,0,0,0.05,66.9,0)" xlink:href="#g"/></g><path d="M115-194c53 0 69 39 70 98 0 66-23 100-70 100C84 3 66-7 56-30L54 0H23l1-261h32v101c10-23 28-34 59-34zm-8 174c40 0 45-34 45-75 0-40-5-75-45-74-42 0-51 32-51 76 0 43 10 73 51 73" id="q"/><g id="e"><use transform="matrix(0.05,0,0,0.05,0,0)" xlink:href="#g"/><use transform="matrix(0.05,0,0,0.05,10,0)" xlink:href="#h"/><use transform="matrix(0.05,0,0,0.05,20,0)" xlink:href="#h"/><use transform="matrix(0.05,0,0,0.05,30,0)" xlink:href="#i"/><use transform="matrix(0.05,0,0,0.05,40,0)" xlink:href="#q"/></g><g id="f"><use transform="matrix(0.05,0,0,0.05,0,0)" xlink:href="#k"/><use transform="matrix(0.05,0,0,0.05,9,0)" xlink:href="#l"/><use transform="matrix(0.05,0,0,0.05,19,0)" xlink:href="#m"/><use transform="matrix(0.05,0,0,0.05,24.95,0)" xlink:href="#n"/><use transform="matrix(0.05,0,0,0.05,33.95,0)" xlink:href="#o"/><use transform="matrix(0.05,0,0,0.05,37.900000000000006,0)" xlink:href="#p"/><use transform="matrix(0.05,0,0,0.05,46.900000000000006,0)" xlink:href="#l"/><use transform="matrix(0.05,0,0,0.05,56.900000000000006,0)" xlink:href="#i"/><use transform="matrix(0.05,0,0,0.05,66.9,0)" xlink:href="#q"/></g></defs></g></svg>